REM DIRINDEX 1\2\6,1\2\7,1\2\8,1\2\9,1\3\10,1\3\11,1\4\12,1\4\13,1\4\14,1\5\15,1\5\16,1\5\17
REM DIRNAME folder01,folder02,folder03,folder04,folder05,folder06,folder07,folder08,folder09,folder10,folder11,folder12,folder13,folder14,folder15,folder16,folder17
TITLE ""
FILE "1900_2_sec15_1483_1500.mp3" MP3
  TRACK 01 AUDIO
    TITLE "0:"
    INDEX 01 00:00:00
  TRACK 02 AUDIO
    TITLE "13:cjc020_5112"
    INDEX 01 00:00:17
  TRACK 03 AUDIO
    TITLE "0:"
    INDEX 01 00:01:46
  TRACK 04 AUDIO
    TITLE "14:cjc020_5113"
    INDEX 01 00:01:50
  TRACK 05 AUDIO
    TITLE "0:"
    INDEX 01 00:04:09
  TRACK 06 AUDIO
    TITLE "13:cjc020_5114"
    INDEX 01 00:04:64
  TRACK 07 AUDIO
    TITLE "0:"
    INDEX 01 00:06:10
  TRACK 08 AUDIO
    TITLE "14:cjc020_5115"
    INDEX 01 00:06:14
  TRACK 09 AUDIO
    TITLE "0:"
    INDEX 01 00:07:60
  TRACK 10 AUDIO
    TITLE "13:cjc020_5116"
    INDEX 01 00:08:38
  TRACK 11 AUDIO
    TITLE "0:"
    INDEX 01 00:09:34
  TRACK 12 AUDIO
    TITLE "14:cjc020_5117"
    INDEX 01 00:09:38
  TRACK 13 AUDIO
    TITLE "0:"
    INDEX 01 00:11:68
  TRACK 14 AUDIO
    TITLE "13:cjc020_5118"
    INDEX 01 00:12:48
  TRACK 15 AUDIO
    TITLE "0:"
    INDEX 01 00:13:63
  TRACK 16 AUDIO
    TITLE "14:cjc020_5119"
    INDEX 01 00:13:67
  TRACK 17 AUDIO
    TITLE "0:"
    INDEX 01 00:16:20
  TRACK 18 AUDIO
    TITLE "13:cjc020_5120"
    INDEX 01 00:16:73
  TRACK 19 AUDIO
    TITLE "0:"
    INDEX 01 00:17:74
  TRACK 20 AUDIO
    TITLE "14:cjc020_5121"
    INDEX 01 00:18:01
  TRACK 21 AUDIO
    TITLE "0:"
    INDEX 01 00:22:11
  TRACK 22 AUDIO
    TITLE "13:cjc020_5122"
    INDEX 01 00:22:66
  TRACK 23 AUDIO
    TITLE "0:"
    INDEX 01 00:23:61
  TRACK 24 AUDIO
    TITLE "14:cjc020_5123"
    INDEX 01 00:23:63
  TRACK 25 AUDIO
    TITLE "0:"
    INDEX 01 00:26:20
  TRACK 26 AUDIO
    TITLE "13:cjc020_5124"
    INDEX 01 00:27:00
  TRACK 27 AUDIO
    TITLE "0:"
    INDEX 01 00:28:00
  TRACK 28 AUDIO
    TITLE "14:cjc020_5125"
    INDEX 01 00:28:04
  TRACK 29 AUDIO
    TITLE "0:"
    INDEX 01 00:30:44
  TRACK 30 AUDIO
    TITLE "13:cjc020_5126"
    INDEX 01 00:31:26
  TRACK 31 AUDIO
    TITLE "0:"
    INDEX 01 00:32:29
  TRACK 32 AUDIO
    TITLE "14:cjc020_5127"
    INDEX 01 00:32:35
  TRACK 33 AUDIO
    TITLE "0:"
    INDEX 01 00:34:47
  TRACK 34 AUDIO
    TITLE "13:cjc020_5128"
    INDEX 01 00:35:25
  TRACK 35 AUDIO
    TITLE "0:"
    INDEX 01 00:36:52
  TRACK 36 AUDIO
    TITLE "14:cjc020_5129"
    INDEX 01 00:36:56
  TRACK 37 AUDIO
    TITLE "0:"
    INDEX 01 00:38:06
  TRACK 38 AUDIO
    TITLE "13:cjc020_5130"
    INDEX 01 00:38:59
  TRACK 39 AUDIO
    TITLE "0:"
    INDEX 01 00:39:66
  TRACK 40 AUDIO
    TITLE "14:cjc020_5131"
    INDEX 01 00:39:68
  TRACK 41 AUDIO
    TITLE "0:"
    INDEX 01 00:42:57
  TRACK 42 AUDIO
    TITLE "13:cjc020_5132"
    INDEX 01 00:43:40
  TRACK 43 AUDIO
    TITLE "0:"
    INDEX 01 00:44:40
  TRACK 44 AUDIO
    TITLE "14:cjc020_5133"
    INDEX 01 00:44:46
  TRACK 45 AUDIO
    TITLE "0:"
    INDEX 01 00:46:70
  TRACK 46 AUDIO
    TITLE "13:cjc020_5134"
    INDEX 01 00:47:46
  TRACK 47 AUDIO
    TITLE "0:"
    INDEX 01 00:48:40
  TRACK 48 AUDIO
    TITLE "14:cjc020_5135"
    INDEX 01 00:48:44
  TRACK 49 AUDIO
    TITLE "0:"
    INDEX 01 00:51:11
  TRACK 50 AUDIO
    TITLE "13:cjc020_5136"
    INDEX 01 00:51:67
  TRACK 51 AUDIO
    TITLE "0:"
    INDEX 01 00:52:65
  TRACK 52 AUDIO
    TITLE "14:cjc020_5137"
    INDEX 01 00:52:71
  TRACK 53 AUDIO
    TITLE "0:"
    INDEX 01 00:55:42
  TRACK 54 AUDIO
    TITLE "13:cjc020_5138"
    INDEX 01 00:56:24
  TRACK 55 AUDIO
    TITLE "0:"
    INDEX 01 00:57:23
  TRACK 56 AUDIO
    TITLE "14:cjc020_5139"
    INDEX 01 00:57:27
  TRACK 57 AUDIO
    TITLE "0:"
    INDEX 01 00:58:42
  TRACK 58 AUDIO
    TITLE "13:cjc020_5140"
    INDEX 01 00:59:30
  TRACK 59 AUDIO
    TITLE "0:"
    INDEX 01 01:00:35
  TRACK 60 AUDIO
    TITLE "14:cjc020_5141"
    INDEX 01 01:00:37
  TRACK 61 AUDIO
    TITLE "0:"
    INDEX 01 01:02:73
  TRACK 62 AUDIO
    TITLE "13:cjc020_5142"
    INDEX 01 01:03:51
  TRACK 63 AUDIO
    TITLE "0:"
    INDEX 01 01:04:64
  TRACK 64 AUDIO
    TITLE "14:cjc020_5143"
    INDEX 01 01:04:68
  TRACK 65 AUDIO
    TITLE "0:"
    INDEX 01 01:06:28
  TRACK 66 AUDIO
    TITLE "13:cjc020_5144"
    INDEX 01 01:07:08
  TRACK 67 AUDIO
    TITLE "0:"
    INDEX 01 01:08:13
  TRACK 68 AUDIO
    TITLE "14:cjc020_5145"
    INDEX 01 01:08:17
  TRACK 69 AUDIO
    TITLE "0:"
    INDEX 01 01:09:34
  TRACK 70 AUDIO
    TITLE "13:cjc020_5146"
    INDEX 01 01:10:18
  TRACK 71 AUDIO
    TITLE "0:"
    INDEX 01 01:11:29
  TRACK 72 AUDIO
    TITLE "14:cjc020_5147"
    INDEX 01 01:11:33
  TRACK 73 AUDIO
    TITLE "0:"
    INDEX 01 01:12:60
